<svg xmlns="http://www.w3.org/2000/svg" xmlns:xlink="http://www.w3.org/1999/xlink" viewBox="0 0 81.44 38.2"><defs><style>.cls-1{fill:none;}.cls-2{isolation:isolate;}.cls-3{fill:#ed2582;}.cls-14,.cls-17,.cls-18,.cls-4{fill:#231f20;}.cls-4,.cls-5{opacity:0.3;}.cls-10,.cls-14,.cls-18,.cls-4,.cls-5{mix-blend-mode:overlay;}.cls-10,.cls-5{fill:#fff;}.cls-6{fill:#e8e9e9;}.cls-7{fill:#bebfc2;}.cls-8{fill:#6cc4a0;}.cls-9{fill:url(#linear-gradient);}.cls-10{opacity:0.4;}.cls-11{fill:#d02c27;}.cls-11,.cls-14{opacity:0.5;}.cls-12{fill:#a9da0c;}.cls-13{fill:#65bc46;}.cls-15{fill:#dcddde;}.cls-16{fill:#a1a3a6;}.cls-17{opacity:0.2;mix-blend-mode:multiply;}.cls-18{opacity:0.1;}.cls-19{fill:#48373f;}.cls-20{mix-blend-mode:color-dodge;fill:url(#radial-gradient);}.cls-21{fill:#35111f;mix-blend-mode:soft-light;}.cls-22{clip-path:url(#clip-path);}.cls-23{fill:#ededee;}</style><linearGradient id="linear-gradient" x1="328.51" y1="-155.31" x2="375.7" y2="-119.99" gradientTransform="translate(-328.79 78.51) rotate(14.47)" gradientUnits="userSpaceOnUse"><stop offset="0" stop-color="#fbaa19"/><stop offset="0.31" stop-color="#ee2424"/><stop offset="1" stop-color="#813092"/></linearGradient><radialGradient id="radial-gradient" cx="90.39" cy="38.09" r="32.15" gradientUnits="userSpaceOnUse"><stop offset="0.29" stop-color="#ec008c"/><stop offset="0.43" stop-color="#b3006a"/><stop offset="0.64" stop-color="#67003d"/><stop offset="0.81" stop-color="#2f001c"/><stop offset="0.93" stop-color="#0d0008"/><stop offset="1"/></radialGradient><clipPath id="clip-path"><polygon class="cls-1" points="61.43 4.78 50.96 19.75 60.57 35.71 76.38 31.38 81.44 20.93 76.38 9.3 61.43 4.78"/></clipPath></defs><title>Asset 1</title><g class="cls-2"><g id="Layer_2" data-name="Layer 2"><g id="Design"><polygon class="cls-3" points="56.75 28.85 43.37 8.97 6.34 14.81 31.23 30.53 56.75 28.85"/><polygon class="cls-4" points="6.34 14.81 56.75 28.85 31.23 30.53 6.34 14.81"/><polygon class="cls-5" points="43.37 8.97 6.34 14.81 49.41 17.94 43.37 8.97"/><polygon class="cls-6" points="49.78 24.72 34.33 16.6 8.17 32.73 34.13 32.23 49.78 24.72"/><polygon class="cls-7" points="8.17 32.73 49.78 24.72 34.13 32.23 8.17 32.73"/><polygon class="cls-5" points="34.33 16.6 8.17 32.73 41.3 20.27 34.33 16.6"/><polygon class="cls-8" points="66.59 19.18 62.59 5.87 38.83 0 50.7 13.94 66.59 19.18"/><polygon class="cls-4" points="38.83 0 66.59 19.18 50.7 13.94 38.83 0"/><polygon class="cls-5" points="62.59 5.87 38.83 0 64.4 11.88 62.59 5.87"/><polygon class="cls-9" points="0 22.15 60.57 35.71 61.43 4.78 0 22.15"/><polygon class="cls-5" points="40.03 25.66 0 22.15 61.43 4.78 40.03 25.66"/><polygon class="cls-10" points="0 22.15 51.72 14.36 61.43 4.78 0 22.15"/><polygon class="cls-11" points="60.57 35.71 40.03 25.66 61.43 4.78 60.57 35.71"/><polygon class="cls-12" points="40.37 17.63 50.85 8.87 15.1 8.15 40.37 17.63"/><polygon class="cls-13" points="15.1 8.15 31.58 16.73 40.37 17.63 15.1 8.15"/><polygon class="cls-5" points="50.85 8.87 15.1 8.15 45.65 13.22 50.85 8.87"/><polygon class="cls-14" points="40.37 17.63 15.82 21.94 31.58 16.73 40.37 17.63"/><polygon class="cls-15" points="47.48 15.48 41.52 20.86 32.9 15.76 47.48 15.48"/><polygon class="cls-16" points="41.52 20.86 36.78 20.72 32.9 15.76 41.52 20.86"/><polygon class="cls-5" points="32.9 15.76 44.25 18.49 47.48 15.48 32.9 15.76"/><polygon class="cls-14" points="41.52 20.86 30.1 23.3 36.78 20.72 41.52 20.86"/><polygon class="cls-17" points="36.71 28.22 33.07 29.5 37.57 30.51 36.71 28.22"/><polygon class="cls-8" points="41.59 28.36 36.71 28.22 23.93 38.2 50.85 32.53 41.59 28.36"/><polygon class="cls-5" points="23.93 38.2 36.71 28.22 41.59 28.36 23.93 38.2"/><polygon class="cls-4" points="23.93 38.2 46.04 30.38 50.85 32.53 23.93 38.2"/><polygon class="cls-18" points="40.03 25.66 49.07 30.08 60.68 31.95 61.3 9.61 50.25 15.69 40.03 25.66"/><polygon class="cls-19" points="61.43 4.78 50.96 19.75 60.57 35.71 76.38 31.38 81.44 20.93 76.38 9.3 61.43 4.78"/><polygon class="cls-20" points="61.43 4.78 50.96 19.75 60.57 35.71 76.38 31.38 81.44 20.93 76.38 9.3 61.43 4.78"/><polygon class="cls-21" points="61.43 4.78 61.27 4.96 46.19 22.94 60.57 35.71 50.96 19.75 61.43 4.78"/><g class="cls-22"><path class="cls-23" d="M69.1,19.85h11c0,.19,0,.46,0,.8,0,.89.06,1.5.06,1.81q0,5.84-3.34,9.06t-9.42,3.23a17.13,17.13,0,0,1-6.07-1,12.71,12.71,0,0,1-4.66-3,13.68,13.68,0,0,1-3-4.7,15.82,15.82,0,0,1-1.05-5.78,15.36,15.36,0,0,1,1.07-5.78,13.34,13.34,0,0,1,3.16-4.66,13.67,13.67,0,0,1,4.74-3,16,16,0,0,1,5.82-1,13.7,13.7,0,0,1,5.84,1.19,13.07,13.07,0,0,1,4.6,3.64l-3.29,2.48a9,9,0,0,0-3.15-2.42,9.42,9.42,0,0,0-3.93-.79,9.85,9.85,0,0,0-7.33,2.88,10.17,10.17,0,0,0-2.85,7.48,10.39,10.39,0,0,0,2.85,7.6,9.81,9.81,0,0,0,7.37,2.92,9.37,9.37,0,0,0,6.06-1.79,6,6,0,0,0,2.21-4.89v-.4H69.1Z"/><path class="cls-23" d="M67.37,35.3a17.94,17.94,0,0,1-6.26-1,13.64,13.64,0,0,1-4.86-3.15,14.23,14.23,0,0,1-3.13-4.89,16.49,16.49,0,0,1-1.09-6,15.79,15.79,0,0,1,1.11-6,13.87,13.87,0,0,1,3.29-4.86,14.38,14.38,0,0,1,4.92-3.14,16.87,16.87,0,0,1,6-1.07,14.44,14.44,0,0,1,6.07,1.24,13.53,13.53,0,0,1,4.79,3.79l.37.45L74.44,13.8l-.33-.39a8.71,8.71,0,0,0-3-2.27,9,9,0,0,0-3.7-.75,9.36,9.36,0,0,0-6.94,2.72,9.74,9.74,0,0,0-2.69,7.1,10,10,0,0,0,2.69,7.22,9.34,9.34,0,0,0,7,2.75,8.88,8.88,0,0,0,5.72-1.67,5.36,5.36,0,0,0,2-4.31H68.55V19.31h12v.54c0,.19,0,.45,0,.78,0,.89.06,1.51.06,1.83,0,4-1.18,7.21-3.51,9.46S71.55,35.3,67.37,35.3Zm0-29a15.57,15.57,0,0,0-5.62,1,13.16,13.16,0,0,0-4.56,2.9,12.89,12.89,0,0,0-3,4.48,14.65,14.65,0,0,0-1,5.57,15.36,15.36,0,0,0,1,5.58A13.36,13.36,0,0,0,57,30.35a12.4,12.4,0,0,0,4.47,2.89,16.68,16.68,0,0,0,5.87,1c3.88,0,6.93-1,9-3.08s3.17-4.95,3.17-8.67c0-.31,0-.91,0-1.79a2.44,2.44,0,0,1,0-.27H69.65v2.7H76.3v.95a6.51,6.51,0,0,1-2.41,5.31,9.88,9.88,0,0,1-6.41,1.92,10.45,10.45,0,0,1-7.77-3.08,11,11,0,0,1-3-8,10.79,10.79,0,0,1,3-7.87,10.45,10.45,0,0,1,7.73-3,10,10,0,0,1,4.16.84,9.26,9.26,0,0,1,3,2.18L77,10.5a12.26,12.26,0,0,0-4-3.06A13.26,13.26,0,0,0,67.37,6.3Z"/></g><polygon class="cls-17" points="50.96 19.75 81.44 20.93 76.38 31.38 60.57 35.71 50.96 19.75"/><polygon class="cls-17" points="50.96 19.75 76.38 31.38 60.57 35.71 50.96 19.75"/><polygon class="cls-5" points="61.43 4.78 81.44 20.93 76.38 9.3 61.43 4.78"/></g></g></g></svg>